<?xml version="1.0" standalone="no"?><!DOCTYPE svg PUBLIC "-//W3C//DTD SVG 1.1//EN" "http://www.w3.org/Graphics/SVG/1.1/DTD/svg11.dtd"><svg t="1748253918277" class="icon" viewBox="0 0 1024 1024" version="1.1" xmlns="http://www.w3.org/2000/svg" p-id="19963" xmlns:xlink="http://www.w3.org/1999/xlink" width="64" height="64"><path d="M152.692392 70.240433h664.689508c33.445765 0 50.161436 16.730094 50.161436 50.161436v852.802105c0 33.460187-16.730094 50.175859-50.161436 50.175859H152.692392c-33.445765 0-50.161436-16.730094-50.161436-50.175859V120.401869c0-33.445765 16.730094-50.161436 50.161436-50.161436z" fill="#FFE5C2" p-id="19964"></path><path d="M77.450238 335.109546a12.54757 12.54757 0 0 1-12.54757-12.54757v-32.854443a12.54757 12.54757 0 0 1 25.09514 0v32.854443c0 6.922797-5.624773 12.54757-12.54757 12.54757z m714.850944 675.722716H127.611674A62.709006 62.709006 0 0 1 64.902668 948.137678V396.333036a12.54757 12.54757 0 0 1 25.09514 0v551.804642a37.628288 37.628288 0 0 0 37.613866 37.628289h664.689508a37.628288 37.628288 0 0 0 37.613866-37.628289V697.301653a12.54757 12.54757 0 0 1 25.095141 0v250.821603a62.709006 62.709006 0 0 1-62.709007 62.709006z m50.161436-589.447353a12.54757 12.54757 0 0 1-12.54757-12.533148V358.690325a12.54757 12.54757 0 1 1 25.095141 0v50.161436c0 6.922797-5.624773 12.54757-12.547571 12.54757zM77.450238 205.206137a12.54757 12.54757 0 0 1-12.54757-12.54757V95.321151A62.709006 62.709006 0 0 1 127.611674 32.597722h664.689508a62.709006 62.709006 0 0 1 62.709007 62.709007v87.789724a12.54757 12.54757 0 0 1-25.095141 0V95.321151A37.628288 37.628288 0 0 0 792.315605 57.692863H127.611674A37.628288 37.628288 0 0 0 89.983386 95.335574v97.322993c0 6.922797-5.624773 12.54757-12.54757 12.54757z" fill="#000000" p-id="19965"></path><path d="M140.144822 634.592646a12.54757 12.54757 0 0 1-12.54757-12.54757V321.047614a12.54757 12.54757 0 1 1 25.09514 0v300.997462c0 6.922797-5.624773 12.54757-12.54757 12.54757z" fill="#FFFFFF" p-id="19966"></path><path d="M503.851291 270.9006l-238.043274-3.014301a12.54757 12.54757 0 0 1 0-25.080718l238.043274 3.014301a12.54757 12.54757 0 1 1 0 25.080718z m0 200.660167l-238.043274-3.014301a12.54757 12.54757 0 0 1 0-25.080718l238.043274 3.014301a12.54757 12.54757 0 1 1 0 25.080718z m175.579449 202.160107l-413.622723-5.26421a12.54757 12.54757 0 0 1 0-25.095141l413.622723 5.278633a12.54757 12.54757 0 0 1 0 25.095141z" fill="#000000" p-id="19967"></path><path d="M140.144822 228.512889a12.54757 12.54757 0 0 1-12.54757-12.547571v-43.642468a12.54757 12.54757 0 0 1 25.09514 0v43.642468c0 6.922797-5.624773 12.54757-12.54757 12.547571z" fill="#FFFFFF" p-id="19968"></path><path d="M561.036482 620.545136l-159.512791 37.383106 3.504667-163.796271L763.96098 51.678683a102.342022 102.342022 0 0 1 143.215372-17.306994 102.342022 102.342022 0 0 1 12.792752 143.720159L561.036482 620.545136z" fill="#FF9100" p-id="19969"></path><path d="M410.537751 487.613004l-5.264211 6.518967-3.504666 163.796271 159.51279-37.383106 5.278633-6.518967-156.022546-126.413165z" fill="#FFFCF8" p-id="19970"></path><path d="M462.718336 631.08798a37.368683 37.368683 0 0 0-47.666345-38.637863L401.523691 657.668638l61.209067-26.580658zM930.252343 63.966648L517.8988 574.393154l48.661497 39.37341L919.723922 177.861088A103.841961 103.841961 0 0 0 930.252343 63.966648z" fill="#F7CE08" p-id="19971"></path><path d="M401.768874 670.46139a12.54757 12.54757 0 0 1-12.54757-12.792752l3.504666-163.781849a12.792753 12.792753 0 0 1 2.769119-7.528542L754.672894 43.645353A117.889471 117.889471 0 0 1 789.791668 14.295577a12.576415 12.576415 0 0 1 12.042783 22.066416 92.549148 92.549148 0 0 0-27.835414 23.075992L417.547083 498.660635l-2.999879 143.215371 139.4511-32.594838 142.725007-175.579449a12.576415 12.576415 0 1 1 19.556902 15.792632L570.814933 629.083253a12.54757 12.54757 0 0 1-6.778573 4.254636l-160.522364 36.878319-1.745122 0.245182z" fill="#000000" p-id="19972"></path><path d="M732.346872 421.399331a12.54757 12.54757 0 0 1-9.778451-20.335717l40.887772-50.147014a12.576415 12.576415 0 0 1 19.556903 15.792632l-40.87335 50.175858a12.54757 12.54757 0 0 1-9.792874 4.514241z m70.987519-87.299359a12.54757 12.54757 0 0 1-9.778452-20.306873l116.389532-143.215371A92.058783 92.058783 0 0 0 930.252343 103.585241a85.525393 85.525393 0 0 0-31.094898-58.439948 84.025453 84.025453 0 0 0-25.095141-14.307115 12.619683 12.619683 0 1 1 8.278512-23.825961c12.02836 4.124833 23.220216 10.326506 33.114048 18.316568a110.360929 110.360929 0 0 1 39.878197 76.251729A116.879896 116.879896 0 0 1 930.252343 185.865572l-116.389531 143.720159a12.54757 12.54757 0 0 1-10.528421 4.514241z m26.59508-307.761612a12.576415 12.576415 0 1 1-1.759545-25.080718c6.143983-0.86535 12.345655-1.298025 18.561751-1.254758a12.54757 12.54757 0 0 1 12.287965 12.792753 13.557145 13.557145 0 0 1-12.792752 12.287966 111.630108 111.630108 0 0 0-14.552298 0l-1.745121 1.254757z m-336.116237 541.276221a12.54757 12.54757 0 0 1-7.773724-2.740274l-7.268938-6.273785a12.576415 12.576415 0 1 1 15.792632-19.571325l7.788147 6.273785a12.54757 12.54757 0 0 1-7.788147 22.326022h-0.74997z m-33.35923-27.085444a12.54757 12.54757 0 0 1-7.773724-2.740274l-49.166284-41.147377a12.576415 12.576415 0 1 1 15.807054-19.571326l50.161436 40.382985a12.54757 12.54757 0 0 1-7.773725 22.326022l-1.254757 0.74997z m96.313419 78.025695a12.54757 12.54757 0 0 1-7.773724-2.769119l-38.868623-31.599685a12.576415 12.576415 0 1 1 15.792631-19.571326l38.637863 32.349656a12.54757 12.54757 0 0 1-7.788147 22.326021v-0.749969z" fill="#000000" p-id="19973"></path></svg>